<svg width="28" height="28" viewBox="0 0 28 28" fill="none" xmlns="http://www.w3.org/2000/svg">
<path d="M19.5498 3.49995L17.2165 5.83328H5.83333V22.1666H22.1667V10.7835L24.5 8.45012V23.3333C24.5 23.6427 24.3771 23.9395 24.1583 24.1582C23.9395 24.377 23.6428 24.5 23.3333 24.5H4.66667C4.35725 24.5 4.0605 24.377 3.84171 24.1582C3.62292 23.9395 3.5 23.6427 3.5 23.3333V4.66662C3.5 4.3572 3.62292 4.06045 3.84171 3.84166C4.0605 3.62287 4.35725 3.49995 4.66667 3.49995H19.5498V3.49995ZM23.8992 2.44995L25.55 4.10195L14.826 14.826L13.1787 14.8295L13.1763 13.1763L23.8992 2.44995V2.44995Z" fill="white"/>
</svg>
