<svg width="347" height="492" viewBox="0 0 347 492" fill="none" xmlns="http://www.w3.org/2000/svg">
<path fill-rule="evenodd" clip-rule="evenodd" d="M251.307 3H89.657V58.7657H251.307V3ZM86.657 0V61.7657H254.307V0H86.657Z" fill="#E2E2E2"/>
<path fill-rule="evenodd" clip-rule="evenodd" d="M206.51 3H136.49V20.0773H206.51V3ZM133.49 0V23.0773H209.51V0H133.49Z" fill="#E2E2E2"/>
<path fill-rule="evenodd" clip-rule="evenodd" d="M206.51 471.333H136.49V488.411H206.51V471.333ZM133.49 468.333V491.411H209.51V468.333H133.49Z" fill="#E2E2E2"/>
<path fill-rule="evenodd" clip-rule="evenodd" d="M251.985 432.645H90.3357V488.41H251.985V432.645ZM87.3357 429.645V491.41H254.985V429.645H87.3357Z" fill="#E2E2E2"/>
<path fill-rule="evenodd" clip-rule="evenodd" d="M170.821 269.176C195.03 269.176 214.654 249.552 214.654 225.343C214.654 201.135 195.03 181.51 170.821 181.51C146.613 181.51 126.988 201.135 126.988 225.343C126.988 249.552 146.613 269.176 170.821 269.176ZM170.821 272.176C196.686 272.176 217.654 251.208 217.654 225.343C217.654 199.478 196.686 178.51 170.821 178.51C144.956 178.51 123.988 199.478 123.988 225.343C123.988 251.208 144.956 272.176 170.821 272.176Z" fill="#E2E2E2"/>
<path fill-rule="evenodd" clip-rule="evenodd" d="M347 225L0 225L0 222L347 222L347 225Z" fill="#E2E2E2"/>
<path fill-rule="evenodd" clip-rule="evenodd" d="M154.36 60.8475C154.36 60.848 154.361 60.8486 153.174 61.7658C151.987 62.6829 151.987 62.6835 151.988 62.6842L151.989 62.6856L151.992 62.689L151.999 62.6979L152.019 62.7236C152.035 62.7442 152.058 62.7717 152.086 62.8057C152.142 62.8737 152.222 62.9676 152.325 63.0836C152.531 63.3155 152.832 63.6364 153.229 64.0163C154.023 64.7757 155.205 65.7742 156.787 66.7688C159.96 68.7629 164.729 70.7319 171.16 70.7319C177.595 70.7319 182.208 68.7603 185.228 66.7469C186.732 65.744 187.834 64.7362 188.567 63.9681C188.934 63.5838 189.209 63.2586 189.398 63.0227C189.492 62.9047 189.565 62.8089 189.616 62.739C189.642 62.7041 189.662 62.6756 189.678 62.6541L189.697 62.6271L189.703 62.6175L189.706 62.6138L189.707 62.6122C189.707 62.6115 189.708 62.6108 188.468 61.7658C187.229 60.9207 187.23 60.9201 187.23 60.9195L187.229 60.9202C187.225 60.927 187.215 60.9404 187.2 60.9602C187.171 60.9997 187.123 61.0643 187.054 61.1504C186.916 61.3228 186.698 61.581 186.397 61.8966C185.794 62.5284 184.859 63.3871 183.564 64.2508C180.984 65.9704 176.943 67.7319 171.16 67.7319C165.374 67.7319 161.15 65.9679 158.384 64.2289C156.997 63.3569 155.973 62.4889 155.303 61.8484C154.968 61.5283 154.723 61.266 154.566 61.0896C154.488 61.0014 154.432 60.9349 154.397 60.8935C154.38 60.8728 154.369 60.8584 154.362 60.8508L154.358 60.8452L154.359 60.8465L154.36 60.8475ZM187.231 60.9176L187.232 60.9167L187.233 60.9153C187.233 60.9152 187.232 60.916 187.231 60.9176Z" fill="white"/>
<path fill-rule="evenodd" clip-rule="evenodd" d="M187.283 430.563C187.282 430.563 187.282 430.562 188.469 429.645C189.656 428.728 189.655 428.727 189.655 428.726L189.654 428.725L189.651 428.722L189.644 428.713L189.624 428.687C189.607 428.666 189.585 428.639 189.557 428.605C189.501 428.537 189.421 428.443 189.318 428.327C189.111 428.095 188.81 427.774 188.413 427.394C187.619 426.635 186.438 425.636 184.855 424.642C181.683 422.648 176.913 420.679 170.482 420.679C164.047 420.679 159.435 422.65 156.415 424.664C154.91 425.667 153.809 426.674 153.075 427.443C152.709 427.827 152.433 428.152 152.245 428.388C152.15 428.506 152.078 428.602 152.026 428.672C152.001 428.707 151.98 428.735 151.965 428.757L151.946 428.784L151.939 428.793L151.937 428.797L151.936 428.798C151.935 428.799 151.935 428.8 153.174 429.645C154.413 430.49 154.413 430.491 154.413 430.491L154.413 430.49C154.418 430.484 154.428 430.47 154.442 430.45C154.471 430.411 154.52 430.346 154.589 430.26C154.726 430.088 154.944 429.83 155.245 429.514C155.848 428.882 156.783 428.024 158.079 427.16C160.658 425.44 164.699 423.679 170.482 423.679C176.268 423.679 180.492 425.443 183.259 427.182C184.646 428.054 185.67 428.922 186.34 429.562C186.674 429.882 186.919 430.145 187.076 430.321C187.155 430.409 187.211 430.476 187.245 430.517C187.262 430.538 187.274 430.552 187.28 430.56L187.285 430.565L187.283 430.564L187.283 430.563ZM154.411 430.493L154.411 430.494L154.41 430.495C154.41 430.495 154.41 430.495 154.411 430.493Z" fill="#E2E2E2"/>
<path fill-rule="evenodd" clip-rule="evenodd" d="M344 488H3V3H344V488ZM0 491V0H347V491H0Z" fill="#E2E2E2"/>
</svg>
